<svg xmlns="http://www.w3.org/2000/svg" viewBox="0 0 64 64">
  <defs>
    <linearGradient id="bg" x1="10" y1="6" x2="54" y2="58" gradientUnits="userSpaceOnUse">
      <stop offset="0" stop-color="#14b8a6"/>
      <stop offset="1" stop-color="#2563eb"/>
    </linearGradient>
    <filter id="shadow" x="-20%" y="-20%" width="140%" height="140%">
      <feDropShadow dx="0" dy="2" stdDeviation="2" flood-color="#0f172a" flood-opacity=".22"/>
    </filter>
  </defs>
  <rect width="64" height="64" rx="14" fill="url(#bg)"/>
  <path d="M17 13h30l6 6v32H17z" fill="#f8fafc" filter="url(#shadow)"/>
  <path d="M47 13v7h6z" fill="#dbeafe"/>
  <path d="M23 23h18v4H23zm0 8h13v4H23z" fill="#0f172a" opacity=".8"/>
  <g fill="#0f172a">
    <rect x="23" y="41" width="4" height="4" rx=".7"/>
    <rect x="29" y="41" width="4" height="4" rx=".7"/>
    <rect x="41" y="41" width="4" height="4" rx=".7"/>
    <rect x="23" y="47" width="4" height="4" rx=".7"/>
    <rect x="35" y="47" width="4" height="4" rx=".7"/>
    <rect x="41" y="47" width="4" height="4" rx=".7"/>
  </g>
</svg>
